<?xml version="1.0" encoding="utf-8"?>
<!-- Generator: Adobe Illustrator 18.1.1, SVG Export Plug-In . SVG Version: 6.00 Build 0)  -->
<svg version="1.1" id="Capa_1" xmlns="http://www.w3.org/2000/svg" xmlns:xlink="http://www.w3.org/1999/xlink" x="0px" y="0px"
	 viewBox="180 -180.4 390.4 390.4" enable-background="new 180 -180.4 390.4 390.4" xml:space="preserve">
<g>
	<g>
		<path fill="#FFFFFF" d="M503.4,31.2c-9.9-12.1-26.1-18.7-47-19.2c-0.6-5-4.8-8.8-9.9-8.8H246.5c-5.5,0-10,4.5-10,10v116
			c0,23,12.9,43.7,33.6,53.9v0c-1,2.4-1.5,4.9-1.5,7.5c0,10.8,8.7,19.5,19.5,19.5h117c10.8,0,19.5-8.7,19.5-19.5
			c0-2.6-0.5-5.1-1.5-7.5c17.7-8.7,29.7-25.1,32.8-44.1c17.1-3.8,31.6-13.6,42.5-28.9c10.1-14.2,13.5-28.2,13.8-29.8l0.1-0.3
			C516.3,59.6,513.3,43.3,503.4,31.2z M482.8,73.6c-0.3,1-2.7,10.1-9,18.9c-4.9,6.8-10.6,11.7-17.3,14.7V41.9
			c7.5,0.3,18.5,1.8,23.7,8.2C484.1,54.9,485,62.8,482.8,73.6z"/>
		<path fill="#FFFFFF" d="M302.3-109.2c16.2,1.9,32.8,2.1,46.9,2.1c4.6,0,9.1,0,13.7-0.1c7.1,0,14.2-0.1,21.3,0l1.1,0
			c1.8,0,3.9,0,6.1-0.1c2.3,0,4.7-0.1,6.9-0.1c-4.4,0.9-9.7,1.8-14.4,2.7c-9.6,1.7-19.4,3.5-26.5,5.2l-1.3,0.3
			c-13.8,3.3-34.7,8.2-41.4,23.1c-2.6,5.7-2.5,12.3,0.5,18c3.1,6,9,10.3,15.6,11.4c2.3,0.4,4.8,0.8,7.5,0.8c4.4,0,8.8-0.4,13-1.2
			c21.8-4.3,21.9,1.4,22,2c0.1,3.7-7.1,10.1-10.2,12.8c-0.7,0.6-1.2,1.1-1.6,1.5c-0.8,0.8-1.7,1.6-2.8,2.5
			c-6.2,5.6-14.8,13.2-13.7,21.5c0.1,1,1,1.8,2,1.8c0,0,0,0,0.1,0c1,0,1.9-0.8,1.9-1.9c0.2-3.4,3.6-6.4,6.7-9c3-2.4,6.2-4.6,9.3-6.8
			c1.3-0.9,2.6-1.8,3.9-2.7l0.1-0.1c5.7-4.1,15.2-10.9,16.5-19c0.5-3.3-0.3-6.4-2.5-9.3c-6-8.1-16.8-8.8-26.5-8.8l-0.8,0
			c-1.7,0-3.4,0-5.2,0.1c-1.8,0-3.6,0.1-5.4,0.1c-3.1,0-5.6-0.1-7.8-0.4c-4.5-0.6-6-3-5-4.8c3.1-5.4,19-10.1,47.5-13.8
			c1.6-0.2,2.8-0.4,3.6-0.5c1.8-0.3,3.5-0.5,5.3-0.8c10.1-1.5,20.6-3.1,30.6-6c17.8-5.3,21.2-14.3,20.8-21.1c0,0,0-0.1,0-0.1l0,0
			l0-0.2c0-0.1,0-0.3,0-0.4c0,0,0,0,0,0c0,0,0,0,0,0c0,0,0,0,0,0c0,0,0,0,0,0c0,0,0,0,0,0c-0.8-7.1-5.7-12.9-13.5-15.9
			c-11.3-4.4-24.5-4.4-36.2-4.5l-3.1,0c-10-0.1-20.1,0.2-30,0.4c-8.6,0.2-17.5,0.4-26.2,0.4c-8.7,0-16.4-0.2-23.5-0.6
			c-5.5-0.3-11.9-0.8-18.4-2c-4.9-0.9-11-2-14.8-5.3c-3.5-3,0.1-9.5,2.6-12.5c7.3-9.2,20.1-13,31.6-15.5c10.6-2.3,22.1-3.5,36.4-3.9
			c9.2-0.2,18.1,0,26.6,0.7c0.1,0,0.1,0,0.2,0c0,0,0,0,0,0c1.1,0,2-0.9,2-2c0-1-0.7-1.8-1.6-2c-16.3-4.7-33.7-7.2-50.2-7.2
			c-5.1,0-10.2,0.2-15.1,0.7c-19,1.8-43.3,8.6-51.5,30.8c-2.8,7.5-2.4,14.3,1.2,20C264-116.1,285.6-111.1,302.3-109.2z"/>
	</g>
</g>
</svg>
