<?xml version="1.0" encoding="utf-8"?>
<!-- Generator: Adobe Illustrator 18.1.1, SVG Export Plug-In . SVG Version: 6.00 Build 0)  -->
<svg version="1.1" id="Layer_1" xmlns="http://www.w3.org/2000/svg" xmlns:xlink="http://www.w3.org/1999/xlink" x="0px" y="0px"
	 viewBox="-2 4 24 24" enable-background="new -2 4 24 24" xml:space="preserve">
<path fill="#FFFFFF" d="M6,9c1.7,0,3,1.3,3,3c0,1.7-1.3,3-3,3s-3-1.3-3-3C3,10.3,4.3,9,6,9z M14,9c1.7,0,3,1.3,3,3c0,1.7-1.3,3-3,3
	c-1.7,0-3-1.3-3-3C11,10.3,12.3,9,14,9z M6,17c3.9,0,7,1.3,7,3v3H-1v-3C-1,18.3,2.1,17,6,17z M14,17c3.9,0,7,1.3,7,3v3h-6v-3
	c0-1.1-0.7-2.1-1.8-3L14,17z"/>
</svg>
