<?xml version="1.0" encoding="utf-8"?>
<!-- Generator: Adobe Illustrator 18.1.1, SVG Export Plug-In . SVG Version: 6.00 Build 0)  -->
<svg version="1.1" id="Layer_1" xmlns="http://www.w3.org/2000/svg" xmlns:xlink="http://www.w3.org/1999/xlink" x="0px" y="0px"
	 viewBox="0 0 30 30" enable-background="new 0 0 30 30" xml:space="preserve">
<title>resource-blog</title>
<g id="Stroke-1">
	<path fill="#FFFFFF" d="M26.1,22.8c-0.4,0-0.8-0.4-0.8-0.8v-8.4c0-0.4,0.4-0.8,0.8-0.8c0.4,0,0.8,0.4,0.8,0.8V22
		C26.9,22.4,26.5,22.8,26.1,22.8z"/>
</g>
<g id="Stroke-2">
	<path fill="#FFFFFF" d="M19.1,30H6.4c-2.1,0-3.8-1.7-3.8-3.8c0,0,0,0,0,0V3.8C2.6,1.7,4.3,0,6.4,0H16c0.4,0,0.8,0.4,0.8,0.8
		S16.5,1.6,16,1.6H6.4c-1.3,0-2.3,1-2.3,2.3v22.3c0,1.3,1,2.3,2.3,2.3h12.7c0.4,0,0.8,0.4,0.8,0.8C19.9,29.6,19.5,30,19.1,30z"/>
</g>
<g id="Stroke-4">
	<path fill="#FFFFFF" d="M19.1,29.8c-0.4,0-0.8-0.4-0.8-0.8l0,0v-7c0-0.4,0.4-0.8,0.8-0.8h7c0.4,0,0.8,0.4,0.8,0.8
		c0,0.4-0.4,0.8-0.8,0.8h-6.2V29C19.9,29.4,19.5,29.8,19.1,29.8L19.1,29.8z"/>
</g>
<g id="Stroke-6">
	<path fill="#FFFFFF" d="M19.1,30c-0.4,0-0.8-0.4-0.8-0.8c0-0.2,0.1-0.4,0.2-0.5l7.1-7.3c0.3-0.3,0.8-0.3,1.1,0
		c0.3,0.3,0.3,0.8,0,1.1l0,0l-7.1,7.2C19.5,29.9,19.3,30,19.1,30z"/>
</g>
<g id="Stroke-8">
	<path fill="#FFFFFF" d="M15.6,18.6c-0.4,0-0.8-0.3-0.8-0.7c0-0.2,0.1-0.5,0.3-0.6L25.1,7.1C26,6.2,26,4.8,25.1,4l-0.5-0.5
		c-0.9-0.9-2.3-0.9-3.2,0L11.4,13.7c-0.3,0.3-0.8,0.2-1.1-0.2c-0.2-0.3-0.2-0.7,0-0.9L20.4,2.4c1.5-1.5,3.9-1.5,5.4,0l0.5,0.5
		c1.5,1.5,1.5,3.9,0,5.4L16.1,18.4C16,18.5,15.8,18.6,15.6,18.6z"/>
</g>
<g id="Stroke-10">
	<path fill="#FFFFFF" d="M10,19.5c-0.4,0-0.8-0.3-0.8-0.8c0,0,0-0.1,0-0.1L10,13c0.1-0.4,0.5-0.7,0.9-0.6c0.1,0,0.3,0.1,0.4,0.2
		l4.7,4.7c0.3,0.3,0.3,0.8,0,1.1c-0.1,0.1-0.2,0.2-0.4,0.2l-5.5,0.8H10z M11.3,14.7l-0.5,3l3-0.5L11.3,14.7z"/>
</g>
</svg>
