<?xml version="1.0" encoding="utf-8"?>
<!-- Generator: Adobe Illustrator 18.1.1, SVG Export Plug-In . SVG Version: 6.00 Build 0)  -->
<svg version="1.1" id="Layer_1" xmlns="http://www.w3.org/2000/svg" xmlns:xlink="http://www.w3.org/1999/xlink" x="0px" y="0px"
	 viewBox="-2 4 24 24" enable-background="new -2 4 24 24" xml:space="preserve">
<path fill="#FFFFFF" d="M13.1,15.3l-0.9,0.9C11.4,16.9,11,17.5,11,19H9v-0.5c0-1.1,0.4-2.1,1.2-2.8l1.2-1.3C11.8,14,12,13.5,12,13
	c0-1.1-0.9-2-2-2c-1.1,0-2,0.9-2,2H6c0-2.2,1.8-4,4-4c2.2,0,4,1.8,4,4C14,13.9,13.6,14.7,13.1,15.3z M11,23H9v-2h2 M10,6
	C4.5,6,0,10.5,0,16c0,5.5,4.5,10,10,10c5.5,0,10-4.5,10-10C20,10.5,15.5,6,10,6z"/>
</svg>
