<?xml version="1.0" encoding="utf-8"?>
<!-- Generator: Adobe Illustrator 18.1.1, SVG Export Plug-In . SVG Version: 6.00 Build 0)  -->
<svg version="1.1" id="Layer_1" xmlns="http://www.w3.org/2000/svg" xmlns:xlink="http://www.w3.org/1999/xlink" x="0px" y="0px"
	 viewBox="0 0 30 30" enable-background="new 0 0 30 30" xml:space="preserve">
<g id="Page-1">
	<g id="Category-icons">
		<g id="icn_mobile">
			<g id="Stroke-3">
				<path fill="#FFFFFF" d="M21,30H8.6c-1.7,0-3.1-1.4-3.1-3.1l0,0V3.1C5.5,1.4,6.9,0,8.6,0H21c1.7,0,3.1,1.4,3.1,3.1v23.8
					C24.1,28.6,22.7,30,21,30L21,30z M8.6,2.1c-0.5,0-1,0.4-1,1l0,0v23.8c0,0.5,0.4,1,1,1l0,0H21c0.5,0,1-0.4,1-1l0,0V3.1
					c0-0.5-0.4-1-1-1H8.6z"/>
			</g>
			<g id="Stroke-5">
				<path fill="#FFFFFF" d="M14.8,26.5c-0.8,0-1.5-0.7-1.5-1.5s0.7-1.5,1.5-1.5s1.5,0.7,1.5,1.5S15.7,26.5,14.8,26.5L14.8,26.5z
					 M14.8,24.4c-0.3,0-0.6,0.3-0.6,0.6c0,0.3,0.3,0.6,0.6,0.6s0.6-0.3,0.6-0.6l0,0C15.4,24.7,15.1,24.4,14.8,24.4z"/>
			</g>
			<g id="Stroke-7">
				<rect x="6.8" y="20" fill="#FFFFFF" width="15.9" height="2.1"/>
			</g>
			<g id="Stroke-9">
				<rect x="6.8" y="5.9" fill="#FFFFFF" width="15.9" height="2.1"/>
			</g>
		</g>
	</g>
</g>
</svg>
