<svg xmlns="http://www.w3.org/2000/svg" xmlns:xlink="http://www.w3.org/1999/xlink" width="567" height="67" viewBox="0 0 567 67">
  <defs>
    <polygon id="pega-community-logo-a" points="0 .949 152.533 .949 152.533 68 0 68"/>
  </defs>
  <g fill="none" fill-rule="evenodd" transform="translate(0 -1)">
    <g transform="translate(0 .051)">
      <mask id="pega-community-logo-b" fill="#fff">
        <use xlink:href="#pega-community-logo-a"/>
      </mask>
      <path fill="#FFF" fill-rule="nonzero" d="M136.1455,17.9363 L135.9585,17.8473 C135.9395,17.8363 133.7455,16.8483 132.0305,18.6533 L131.8115,18.8843 L135.3245,20.6053 L136.1455,17.9363 Z M152.2275,37.2283 C152.2275,37.2283 150.6955,39.9683 150.0095,40.9813 C149.3205,42.0023 147.1655,42.6363 145.3025,41.7463 C144.4505,41.3413 136.4795,36.6913 133.4295,36.9583 C117.9905,38.3043 113.7845,31.9433 113.2885,31.3653 C112.7915,30.7873 111.8625,31.0563 112.5255,32.1923 C115.9125,38.0013 125.9365,40.6933 125.9365,40.6933 C128.5565,47.0103 128.8705,51.4353 128.8705,51.4353 C126.2745,49.4123 123.4725,47.7073 120.4995,46.2913 C112.5535,40.9593 100.1145,34.3563 82.9935,30.2173 C83.9765,16.6343 90.8295,-2.9997 122.8775,1.6443 C122.8775,1.6443 129.3085,2.6983 133.5945,5.6623 C133.5945,5.6623 132.5645,6.7423 131.2105,8.0943 C129.8565,9.4433 131.3545,10.3093 131.3545,10.3093 L138.1235,15.6303 C138.2025,18.4453 138.3185,19.2333 140.4365,21.7813 C142.5545,24.3253 150.7895,32.9503 151.8665,34.1033 C153.1145,35.4373 152.2275,37.2283 152.2275,37.2283 Z M78.4185,10.7523 C76.7245,17.7353 76.8535,23.8873 77.7245,29.0593 C76.1165,28.7383 74.4825,28.4323 72.7995,28.1583 C37.7255,22.4503 27.1465,39.7363 31.2415,53.7533 C19.6455,58.1123 8.7485,63.1013 -0.0005,68.0003 C13.7655,34.9833 43.6815,5.9253 68.9315,2.1053 C77.1755,1.0193 79.4935,6.3673 78.4185,10.7523 Z" mask="url(#pega-community-logo-b)"/>
    </g>
    <path fill="#00A6A7" fill-rule="nonzero" d="M83.2778,40.979 C96.9428,39.899 109.8398,41.27 120.4988,46.342 C112.5528,41.01 100.1138,34.408 82.9918,30.269 C82.6498,35 83.0158,38.996 83.2778,40.979 M81.3048,41.151 C65.9948,42.613 47.8908,47.552 31.2408,53.805 C27.1468,39.789 37.7268,22.5 72.7998,28.209 C74.4828,28.483 76.1158,28.791 77.7238,29.11 C78.5558,34.055 80.0618,38.117 81.3048,41.151"/>
    <path fill="#FFF" fill-rule="nonzero" d="M286.4155,35.9283 L291.1645,24.3353 L295.9145,35.9283 L286.4155,35.9283 Z M287.6405,14.8893 L272.3215,50.8893 L280.3395,50.8893 L283.6045,42.8743 L298.7245,42.8743 L301.9895,50.8893 L310.2125,50.8893 L294.8935,14.8893 L287.6405,14.8893 Z M188.4325,27.5933 C188.4325,30.6763 186.1215,33.0423 182.1605,33.0423 L175.8865,33.0423 L175.8865,22.0383 L182.0055,22.0383 C185.9665,22.0383 188.4325,23.9413 188.4325,27.4903 L188.4325,27.5933 Z M182.6745,14.8893 L167.9655,14.8893 L167.9655,50.8893 L175.8865,50.8893 L175.8865,40.0893 L181.9015,40.0893 C189.9765,40.0893 196.4585,35.7673 196.4585,27.4363 L196.4585,27.3333 C196.4585,19.9793 191.2655,14.8893 182.6745,14.8893 Z M239.5495,18.9093 C235.7745,22.5963 233.8605,27.2643 233.8605,32.7853 C233.8605,38.3103 235.7385,42.9433 239.4485,46.5643 C243.1515,50.1813 247.8075,52.0123 253.2885,52.0123 C259.7775,52.0123 264.8505,50.0483 268.3725,46.1733 L268.5545,45.9683 L268.5545,29.4453 L252.8975,29.4453 L252.8975,36.1333 L261.0635,36.1333 L261.0635,42.8823 C258.9495,44.1413 256.3105,44.7813 253.2145,44.7813 C250.0065,44.7813 247.2395,43.6813 244.9885,41.5083 C242.7435,39.3473 241.6045,36.4163 241.6045,32.8153 C241.6045,29.2113 242.7775,26.2673 245.0895,24.0693 C247.4095,21.8613 250.3235,20.7413 253.7515,20.7413 C255.5545,20.7413 257.1515,20.9633 258.4965,21.4013 C259.7585,21.8113 261.0365,22.5563 262.3025,23.6013 L266.6825,18.0723 C264.3715,16.0363 260.2125,13.3563 253.2885,13.3563 C247.9475,13.3563 243.3245,15.2253 239.5495,18.9093 Z M210.1215,36.4933 L225.6275,36.4933 L225.6275,29.4463 L210.1215,29.4463 L210.1215,21.9313 L229.4085,21.9313 L229.4085,14.8893 L202.2515,14.8893 L202.2515,50.8893 L229.6645,50.8893 L229.6645,43.8443 L210.1215,43.8443 L210.1215,36.4933 Z"/>
    <text fill="#FFF" font-family="OpenSans-Regular, Open Sans" font-size="48">
      <tspan x="328" y="51">GCLC 2018</tspan>
    </text>
  </g>
</svg>
